<svg xmlns="http://www.w3.org/2000/svg" viewBox="0 0 4020 4020">
    <path xmlns="http://www.w3.org/2000/svg" d="M2210 2010 A200 200 0 0 1 2010 2210" style="stroke:black;stroke-width:1" fill="none"/>
    <path xmlns="http://www.w3.org/2000/svg" d="M1810 2010 A200 200 0 0 1 2009 1810" style="stroke:black;stroke-width:1" fill="none"/>
    <path xmlns="http://www.w3.org/2000/svg" d="M2009 1810 A200 200 0 0 1 2210 2010" style="stroke:black;stroke-width:1" fill="none"/>
    <path xmlns="http://www.w3.org/2000/svg" d="M2363 2363 A500 500 0 0 1 2010 2510" style="stroke:black;stroke-width:1" fill="none"/>
    <path xmlns="http://www.w3.org/2000/svg" d="M2010 2510 A500 500 0 0 1 1656 2363" style="stroke:black;stroke-width:1" fill="none"/>
    <path xmlns="http://www.w3.org/2000/svg" d="M2009 1510 A500 500 0 0 1 2363 1656" style="stroke:black;stroke-width:1" fill="none"/>
    <path xmlns="http://www.w3.org/2000/svg" d="M2810 2010 A800 800 0 0 1 2749 2316" style="stroke:black;stroke-width:1" fill="none"/>
    <path xmlns="http://www.w3.org/2000/svg" d="M2749 2316 A800 800 0 0 1 2575 2575" style="stroke:black;stroke-width:1" fill="none"/>
    <path xmlns="http://www.w3.org/2000/svg" d="M2010 2810 A800 800 0 0 1 1703 2749" style="stroke:black;stroke-width:1" fill="none"/>
    <path xmlns="http://www.w3.org/2000/svg" d="M1444 2575 A800 800 0 0 1 1270 2316" style="stroke:black;stroke-width:1" fill="none"/>
    <path xmlns="http://www.w3.org/2000/svg" d="M1270 2316 A800 800 0 0 1 1210 2010" style="stroke:black;stroke-width:1" fill="none"/>
    <path xmlns="http://www.w3.org/2000/svg" d="M1210 2010 A800 800 0 0 1 1270 1703" style="stroke:black;stroke-width:1" fill="none"/>
    <path xmlns="http://www.w3.org/2000/svg" d="M1444 1444 A800 800 0 0 1 1703 1270" style="stroke:black;stroke-width:1" fill="none"/>
    <path xmlns="http://www.w3.org/2000/svg" d="M2316 1270 A800 800 0 0 1 2575 1444" style="stroke:black;stroke-width:1" fill="none"/>
    <path xmlns="http://www.w3.org/2000/svg" d="M2749 1703 A800 800 0 0 1 2810 2010" style="stroke:black;stroke-width:1" fill="none"/>
    <path xmlns="http://www.w3.org/2000/svg" d="M3088 2224 A1100 1100 0 0 1 3026 2430" style="stroke:black;stroke-width:1" fill="none"/>
    <path xmlns="http://www.w3.org/2000/svg" d="M3026 2430 A1100 1100 0 0 1 2924 2621" style="stroke:black;stroke-width:1" fill="none"/>
    <path xmlns="http://www.w3.org/2000/svg" d="M2621 2924 A1100 1100 0 0 1 2430 3026" style="stroke:black;stroke-width:1" fill="none"/>
    <path xmlns="http://www.w3.org/2000/svg" d="M2430 3026 A1100 1100 0 0 1 2224 3088" style="stroke:black;stroke-width:1" fill="none"/>
    <path xmlns="http://www.w3.org/2000/svg" d="M2224 3088 A1100 1100 0 0 1 2010 3110" style="stroke:black;stroke-width:1" fill="none"/>
    <path xmlns="http://www.w3.org/2000/svg" d="M1795 3088 A1100 1100 0 0 1 1589 3026" style="stroke:black;stroke-width:1" fill="none"/>
    <path xmlns="http://www.w3.org/2000/svg" d="M1589 3026 A1100 1100 0 0 1 1398 2924" style="stroke:black;stroke-width:1" fill="none"/>
    <path xmlns="http://www.w3.org/2000/svg" d="M1398 2924 A1100 1100 0 0 1 1232 2787" style="stroke:black;stroke-width:1" fill="none"/>
    <path xmlns="http://www.w3.org/2000/svg" d="M1232 2787 A1100 1100 0 0 1 1095 2621" style="stroke:black;stroke-width:1" fill="none"/>
    <path xmlns="http://www.w3.org/2000/svg" d="M993 2430 A1100 1100 0 0 1 931 2224" style="stroke:black;stroke-width:1" fill="none"/>
    <path xmlns="http://www.w3.org/2000/svg" d="M931 2224 A1100 1100 0 0 1 910 2010" style="stroke:black;stroke-width:1" fill="none"/>
    <path xmlns="http://www.w3.org/2000/svg" d="M931 1795 A1100 1100 0 0 1 993 1589" style="stroke:black;stroke-width:1" fill="none"/>
    <path xmlns="http://www.w3.org/2000/svg" d="M993 1589 A1100 1100 0 0 1 1095 1398" style="stroke:black;stroke-width:1" fill="none"/>
    <path xmlns="http://www.w3.org/2000/svg" d="M1795 931 A1100 1100 0 0 1 2009 910" style="stroke:black;stroke-width:1" fill="none"/>
    <path xmlns="http://www.w3.org/2000/svg" d="M2009 910 A1100 1100 0 0 1 2224 931" style="stroke:black;stroke-width:1" fill="none"/>
    <path xmlns="http://www.w3.org/2000/svg" d="M2224 931 A1100 1100 0 0 1 2430 993" style="stroke:black;stroke-width:1" fill="none"/>
    <path xmlns="http://www.w3.org/2000/svg" d="M2621 1095 A1100 1100 0 0 1 2787 1232" style="stroke:black;stroke-width:1" fill="none"/>
    <path xmlns="http://www.w3.org/2000/svg" d="M2924 1398 A1100 1100 0 0 1 3026 1589" style="stroke:black;stroke-width:1" fill="none"/>
    <path xmlns="http://www.w3.org/2000/svg" d="M3410 2010 A1400 1400 0 0 1 3403 2147" style="stroke:black;stroke-width:1" fill="none"/>
    <path xmlns="http://www.w3.org/2000/svg" d="M3403 2147 A1400 1400 0 0 1 3383 2283" style="stroke:black;stroke-width:1" fill="none"/>
    <path xmlns="http://www.w3.org/2000/svg" d="M3349 2416 A1400 1400 0 0 1 3303 2545" style="stroke:black;stroke-width:1" fill="none"/>
    <path xmlns="http://www.w3.org/2000/svg" d="M3174 2787 A1400 1400 0 0 1 3092 2898" style="stroke:black;stroke-width:1" fill="none"/>
    <path xmlns="http://www.w3.org/2000/svg" d="M2999 2999 A1400 1400 0 0 1 2898 3092" style="stroke:black;stroke-width:1" fill="none"/>
    <path xmlns="http://www.w3.org/2000/svg" d="M2898 3092 A1400 1400 0 0 1 2787 3174" style="stroke:black;stroke-width:1" fill="none"/>
    <path xmlns="http://www.w3.org/2000/svg" d="M2787 3174 A1400 1400 0 0 1 2669 3244" style="stroke:black;stroke-width:1" fill="none"/>
    <path xmlns="http://www.w3.org/2000/svg" d="M2669 3244 A1400 1400 0 0 1 2545 3303" style="stroke:black;stroke-width:1" fill="none"/>
    <path xmlns="http://www.w3.org/2000/svg" d="M2545 3303 A1400 1400 0 0 1 2416 3349" style="stroke:black;stroke-width:1" fill="none"/>
    <path xmlns="http://www.w3.org/2000/svg" d="M2283 3383 A1400 1400 0 0 1 2147 3403" style="stroke:black;stroke-width:1" fill="none"/>
    <path xmlns="http://www.w3.org/2000/svg" d="M1872 3403 A1400 1400 0 0 1 1736 3383" style="stroke:black;stroke-width:1" fill="none"/>
    <path xmlns="http://www.w3.org/2000/svg" d="M1736 3383 A1400 1400 0 0 1 1603 3349" style="stroke:black;stroke-width:1" fill="none"/>
    <path xmlns="http://www.w3.org/2000/svg" d="M1350 3244 A1400 1400 0 0 1 1232 3174" style="stroke:black;stroke-width:1" fill="none"/>
    <path xmlns="http://www.w3.org/2000/svg" d="M1121 3092 A1400 1400 0 0 1 1020 2999" style="stroke:black;stroke-width:1" fill="none"/>
    <path xmlns="http://www.w3.org/2000/svg" d="M927 2898 A1400 1400 0 0 1 845 2787" style="stroke:black;stroke-width:1" fill="none"/>
    <path xmlns="http://www.w3.org/2000/svg" d="M845 2787 A1400 1400 0 0 1 775 2669" style="stroke:black;stroke-width:1" fill="none"/>
    <path xmlns="http://www.w3.org/2000/svg" d="M616 2147 A1400 1400 0 0 1 610 2010" style="stroke:black;stroke-width:1" fill="none"/>
    <path xmlns="http://www.w3.org/2000/svg" d="M610 2010 A1400 1400 0 0 1 616 1872" style="stroke:black;stroke-width:1" fill="none"/>
    <path xmlns="http://www.w3.org/2000/svg" d="M616 1872 A1400 1400 0 0 1 636 1736" style="stroke:black;stroke-width:1" fill="none"/>
    <path xmlns="http://www.w3.org/2000/svg" d="M775 1350 A1400 1400 0 0 1 845 1232" style="stroke:black;stroke-width:1" fill="none"/>
    <path xmlns="http://www.w3.org/2000/svg" d="M845 1232 A1400 1400 0 0 1 927 1121" style="stroke:black;stroke-width:1" fill="none"/>
    <path xmlns="http://www.w3.org/2000/svg" d="M927 1121 A1400 1400 0 0 1 1020 1020" style="stroke:black;stroke-width:1" fill="none"/>
    <path xmlns="http://www.w3.org/2000/svg" d="M1121 927 A1400 1400 0 0 1 1232 845" style="stroke:black;stroke-width:1" fill="none"/>
    <path xmlns="http://www.w3.org/2000/svg" d="M1350 775 A1400 1400 0 0 1 1474 716" style="stroke:black;stroke-width:1" fill="none"/>
    <path xmlns="http://www.w3.org/2000/svg" d="M1474 716 A1400 1400 0 0 1 1603 670" style="stroke:black;stroke-width:1" fill="none"/>
    <path xmlns="http://www.w3.org/2000/svg" d="M1603 670 A1400 1400 0 0 1 1736 636" style="stroke:black;stroke-width:1" fill="none"/>
    <path xmlns="http://www.w3.org/2000/svg" d="M1736 636 A1400 1400 0 0 1 1872 616" style="stroke:black;stroke-width:1" fill="none"/>
    <path xmlns="http://www.w3.org/2000/svg" d="M1872 616 A1400 1400 0 0 1 2009 610" style="stroke:black;stroke-width:1" fill="none"/>
    <path xmlns="http://www.w3.org/2000/svg" d="M2009 610 A1400 1400 0 0 1 2147 616" style="stroke:black;stroke-width:1" fill="none"/>
    <path xmlns="http://www.w3.org/2000/svg" d="M2283 636 A1400 1400 0 0 1 2416 670" style="stroke:black;stroke-width:1" fill="none"/>
    <path xmlns="http://www.w3.org/2000/svg" d="M2416 670 A1400 1400 0 0 1 2545 716" style="stroke:black;stroke-width:1" fill="none"/>
    <path xmlns="http://www.w3.org/2000/svg" d="M2545 716 A1400 1400 0 0 1 2669 775" style="stroke:black;stroke-width:1" fill="none"/>
    <path xmlns="http://www.w3.org/2000/svg" d="M2669 775 A1400 1400 0 0 1 2787 845" style="stroke:black;stroke-width:1" fill="none"/>
    <path xmlns="http://www.w3.org/2000/svg" d="M2898 927 A1400 1400 0 0 1 2999 1020" style="stroke:black;stroke-width:1" fill="none"/>
    <path xmlns="http://www.w3.org/2000/svg" d="M2999 1020 A1400 1400 0 0 1 3092 1121" style="stroke:black;stroke-width:1" fill="none"/>
    <path xmlns="http://www.w3.org/2000/svg" d="M3092 1121 A1400 1400 0 0 1 3174 1232" style="stroke:black;stroke-width:1" fill="none"/>
    <path xmlns="http://www.w3.org/2000/svg" d="M3303 1474 A1400 1400 0 0 1 3349 1603" style="stroke:black;stroke-width:1" fill="none"/>
    <path xmlns="http://www.w3.org/2000/svg" d="M3349 1603 A1400 1400 0 0 1 3383 1736" style="stroke:black;stroke-width:1" fill="none"/>
    <path xmlns="http://www.w3.org/2000/svg" d="M3403 1872 A1400 1400 0 0 1 3410 2010" style="stroke:black;stroke-width:1" fill="none"/>
    <line xmlns="http://www.w3.org/2000/svg" x1="2010" y1="2210" x2="2010" y2="2510" style="stroke:black;stroke-width:1"/>
    <line xmlns="http://www.w3.org/2000/svg" x1="1810" y1="2010" x2="1510" y2="2010" style="stroke:black;stroke-width:1"/>
    <line xmlns="http://www.w3.org/2000/svg" x1="2009" y1="1810" x2="2009" y2="1510" style="stroke:black;stroke-width:1"/>
    <line xmlns="http://www.w3.org/2000/svg" x1="2010" y1="2510" x2="2010" y2="2810" style="stroke:black;stroke-width:1"/>
    <line xmlns="http://www.w3.org/2000/svg" x1="1510" y1="2010" x2="1210" y2="2010" style="stroke:black;stroke-width:1"/>
    <line xmlns="http://www.w3.org/2000/svg" x1="1656" y1="1656" x2="1444" y2="1444" style="stroke:black;stroke-width:1"/>
    <line xmlns="http://www.w3.org/2000/svg" x1="2363" y1="1656" x2="2575" y2="1444" style="stroke:black;stroke-width:1"/>
    <line xmlns="http://www.w3.org/2000/svg" x1="2510" y1="2010" x2="2810" y2="2010" style="stroke:black;stroke-width:1"/>
    <line xmlns="http://www.w3.org/2000/svg" x1="2749" y1="2316" x2="3026" y2="2430" style="stroke:black;stroke-width:1"/>
    <line xmlns="http://www.w3.org/2000/svg" x1="2316" y1="2749" x2="2430" y2="3026" style="stroke:black;stroke-width:1"/>
    <line xmlns="http://www.w3.org/2000/svg" x1="2010" y1="2810" x2="2010" y2="3110" style="stroke:black;stroke-width:1"/>
    <line xmlns="http://www.w3.org/2000/svg" x1="1444" y1="2575" x2="1232" y2="2787" style="stroke:black;stroke-width:1"/>
    <line xmlns="http://www.w3.org/2000/svg" x1="1270" y1="1703" x2="993" y2="1589" style="stroke:black;stroke-width:1"/>
    <line xmlns="http://www.w3.org/2000/svg" x1="1444" y1="1444" x2="1232" y2="1232" style="stroke:black;stroke-width:1"/>
    <line xmlns="http://www.w3.org/2000/svg" x1="1703" y1="1270" x2="1589" y2="993" style="stroke:black;stroke-width:1"/>
    <line xmlns="http://www.w3.org/2000/svg" x1="2009" y1="1210" x2="2009" y2="910" style="stroke:black;stroke-width:1"/>
    <line xmlns="http://www.w3.org/2000/svg" x1="2575" y1="1444" x2="2787" y2="1232" style="stroke:black;stroke-width:1"/>
    <line xmlns="http://www.w3.org/2000/svg" x1="2749" y1="1703" x2="3026" y2="1589" style="stroke:black;stroke-width:1"/>
    <line xmlns="http://www.w3.org/2000/svg" x1="3026" y1="2430" x2="3303" y2="2545" style="stroke:black;stroke-width:1"/>
    <line xmlns="http://www.w3.org/2000/svg" x1="2924" y1="2621" x2="3174" y2="2787" style="stroke:black;stroke-width:1"/>
    <line xmlns="http://www.w3.org/2000/svg" x1="2787" y1="2787" x2="2999" y2="2999" style="stroke:black;stroke-width:1"/>
    <line xmlns="http://www.w3.org/2000/svg" x1="2430" y1="3026" x2="2545" y2="3303" style="stroke:black;stroke-width:1"/>
    <line xmlns="http://www.w3.org/2000/svg" x1="2010" y1="3110" x2="2010" y2="3410" style="stroke:black;stroke-width:1"/>
    <line xmlns="http://www.w3.org/2000/svg" x1="1795" y1="3088" x2="1736" y2="3383" style="stroke:black;stroke-width:1"/>
    <line xmlns="http://www.w3.org/2000/svg" x1="1398" y1="2924" x2="1232" y2="3174" style="stroke:black;stroke-width:1"/>
    <line xmlns="http://www.w3.org/2000/svg" x1="1095" y1="2621" x2="845" y2="2787" style="stroke:black;stroke-width:1"/>
    <line xmlns="http://www.w3.org/2000/svg" x1="993" y1="2430" x2="716" y2="2545" style="stroke:black;stroke-width:1"/>
    <line xmlns="http://www.w3.org/2000/svg" x1="931" y1="2224" x2="636" y2="2283" style="stroke:black;stroke-width:1"/>
    <line xmlns="http://www.w3.org/2000/svg" x1="931" y1="1795" x2="636" y2="1736" style="stroke:black;stroke-width:1"/>
    <line xmlns="http://www.w3.org/2000/svg" x1="993" y1="1589" x2="716" y2="1474" style="stroke:black;stroke-width:1"/>
    <line xmlns="http://www.w3.org/2000/svg" x1="1232" y1="1232" x2="1020" y2="1020" style="stroke:black;stroke-width:1"/>
    <line xmlns="http://www.w3.org/2000/svg" x1="1398" y1="1095" x2="1232" y2="845" style="stroke:black;stroke-width:1"/>
    <line xmlns="http://www.w3.org/2000/svg" x1="1589" y1="993" x2="1474" y2="716" style="stroke:black;stroke-width:1"/>
    <line xmlns="http://www.w3.org/2000/svg" x1="2224" y1="931" x2="2283" y2="636" style="stroke:black;stroke-width:1"/>
    <line xmlns="http://www.w3.org/2000/svg" x1="2621" y1="1095" x2="2787" y2="845" style="stroke:black;stroke-width:1"/>
    <line xmlns="http://www.w3.org/2000/svg" x1="2924" y1="1398" x2="3174" y2="1232" style="stroke:black;stroke-width:1"/>
    <line xmlns="http://www.w3.org/2000/svg" x1="3026" y1="1589" x2="3303" y2="1474" style="stroke:black;stroke-width:1"/>
    <line xmlns="http://www.w3.org/2000/svg" x1="3088" y1="1795" x2="3383" y2="1736" style="stroke:black;stroke-width:1"/>
    <line xmlns="http://www.w3.org/2000/svg" x1="3110" y1="2010" x2="3410" y2="2010" style="stroke:black;stroke-width:1"/>
    <line xmlns="http://www.w3.org/2000/svg" x1="3244" y1="2669" x2="3509" y2="2811" style="stroke:black;stroke-width:1"/>
    <line xmlns="http://www.w3.org/2000/svg" x1="3092" y1="2898" x2="3324" y2="3088" style="stroke:black;stroke-width:1"/>
    <line xmlns="http://www.w3.org/2000/svg" x1="2147" y1="3403" x2="2176" y2="3701" style="stroke:black;stroke-width:1"/>
    <line xmlns="http://www.w3.org/2000/svg" x1="1872" y1="3403" x2="1843" y2="3701" style="stroke:black;stroke-width:1"/>
    <line xmlns="http://www.w3.org/2000/svg" x1="1474" y1="3303" x2="1359" y2="3580" style="stroke:black;stroke-width:1"/>
    <line xmlns="http://www.w3.org/2000/svg" x1="1020" y1="2999" x2="807" y2="3212" style="stroke:black;stroke-width:1"/>
    <line xmlns="http://www.w3.org/2000/svg" x1="670" y1="2416" x2="383" y2="2503" style="stroke:black;stroke-width:1"/>
    <line xmlns="http://www.w3.org/2000/svg" x1="636" y1="2283" x2="342" y2="2341" style="stroke:black;stroke-width:1"/>
    <line xmlns="http://www.w3.org/2000/svg" x1="670" y1="1603" x2="383" y2="1516" style="stroke:black;stroke-width:1"/>
    <line xmlns="http://www.w3.org/2000/svg" x1="1121" y1="927" x2="931" y2="695" style="stroke:black;stroke-width:1"/>
    <line xmlns="http://www.w3.org/2000/svg" x1="2147" y1="616" x2="2176" y2="318" style="stroke:black;stroke-width:1"/>
    <line xmlns="http://www.w3.org/2000/svg" x1="3244" y1="1350" x2="3509" y2="1208" style="stroke:black;stroke-width:1"/>
    <line xmlns="http://www.w3.org/2000/svg" x1="3403" y1="1872" x2="3701" y2="1843" style="stroke:black;stroke-width:1"/>
    <circle xmlns="http://www.w3.org/2000/svg" cx="2010" cy="2010" r="1700" fill="none" style="stroke:black;stroke-width:3"/>
    <circle xmlns="http://www.w3.org/2000/svg" cx="2010" cy="2010" r="16" fill="rgb(255,0,0)"/>
    <circle xmlns="http://www.w3.org/2000/svg" cx="2257" cy="2257" r="6" fill="rgb(120,120,120)"/>
    <circle xmlns="http://www.w3.org/2000/svg" cx="1762" cy="2257" r="6" fill="rgb(120,120,120)"/>
    <circle xmlns="http://www.w3.org/2000/svg" cx="2257" cy="1762" r="6" fill="rgb(120,120,120)"/>
    <circle xmlns="http://www.w3.org/2000/svg" cx="2610" cy="2258" r="6" fill="rgb(120,120,120)"/>
    <circle xmlns="http://www.w3.org/2000/svg" cx="2258" cy="2610" r="6" fill="rgb(120,120,120)"/>
    <circle xmlns="http://www.w3.org/2000/svg" cx="1761" cy="2610" r="6" fill="rgb(120,120,120)"/>
    <circle xmlns="http://www.w3.org/2000/svg" cx="1409" cy="2258" r="6" fill="rgb(120,120,120)"/>
    <circle xmlns="http://www.w3.org/2000/svg" cx="2610" cy="1761" r="6" fill="rgb(120,120,120)"/>
    <circle xmlns="http://www.w3.org/2000/svg" cx="2941" cy="2195" r="6" fill="rgb(120,120,120)"/>
    <circle xmlns="http://www.w3.org/2000/svg" cx="2799" cy="2537" r="6" fill="rgb(120,120,120)"/>
    <circle xmlns="http://www.w3.org/2000/svg" cx="2537" cy="2799" r="6" fill="rgb(120,120,120)"/>
    <circle xmlns="http://www.w3.org/2000/svg" cx="1824" cy="2941" r="6" fill="rgb(120,120,120)"/>
    <circle xmlns="http://www.w3.org/2000/svg" cx="1482" cy="2799" r="6" fill="rgb(120,120,120)"/>
    <circle xmlns="http://www.w3.org/2000/svg" cx="2799" cy="1482" r="6" fill="rgb(120,120,120)"/>
    <circle xmlns="http://www.w3.org/2000/svg" cx="2941" cy="1824" r="6" fill="rgb(120,120,120)"/>
    <circle xmlns="http://www.w3.org/2000/svg" cx="3253" cy="2132" r="6" fill="rgb(120,120,120)"/>
    <circle xmlns="http://www.w3.org/2000/svg" cx="3206" cy="2372" r="6" fill="rgb(120,120,120)"/>
    <circle xmlns="http://www.w3.org/2000/svg" cx="2976" cy="2802" r="6" fill="rgb(120,120,120)"/>
    <circle xmlns="http://www.w3.org/2000/svg" cx="2372" cy="3206" r="6" fill="rgb(120,120,120)"/>
    <circle xmlns="http://www.w3.org/2000/svg" cx="2132" cy="3253" r="6" fill="rgb(120,120,120)"/>
    <circle xmlns="http://www.w3.org/2000/svg" cx="1887" cy="3253" r="6" fill="rgb(120,120,120)"/>
    <circle xmlns="http://www.w3.org/2000/svg" cx="2802" cy="1043" r="6" fill="rgb(120,120,120)"/>
    <circle xmlns="http://www.w3.org/2000/svg" cx="2976" cy="1217" r="6" fill="rgb(120,120,120)"/>
    <circle xmlns="http://www.w3.org/2000/svg" cx="3112" cy="1420" r="6" fill="rgb(120,120,120)"/>
    <circle xmlns="http://www.w3.org/2000/svg" cx="3253" cy="1887" r="6" fill="rgb(120,120,120)"/>
    <circle xmlns="http://www.w3.org/2000/svg" cx="3558" cy="2086" r="6" fill="rgb(120,120,120)"/>
    <circle xmlns="http://www.w3.org/2000/svg" cx="3543" cy="2237" r="6" fill="rgb(120,120,120)"/>
    <circle xmlns="http://www.w3.org/2000/svg" cx="3513" cy="2386" r="6" fill="rgb(120,120,120)"/>
    <circle xmlns="http://www.w3.org/2000/svg" cx="3158" cy="3050" r="6" fill="rgb(120,120,120)"/>
    <circle xmlns="http://www.w3.org/2000/svg" cx="3050" cy="3158" r="6" fill="rgb(120,120,120)"/>
    <circle xmlns="http://www.w3.org/2000/svg" cx="2933" cy="3254" r="6" fill="rgb(120,120,120)"/>
    <circle xmlns="http://www.w3.org/2000/svg" cx="2806" cy="3339" r="6" fill="rgb(120,120,120)"/>
    <circle xmlns="http://www.w3.org/2000/svg" cx="2672" cy="3411" r="6" fill="rgb(120,120,120)"/>
    <circle xmlns="http://www.w3.org/2000/svg" cx="2532" cy="3469" r="6" fill="rgb(120,120,120)"/>
    <circle xmlns="http://www.w3.org/2000/svg" cx="2386" cy="3513" r="6" fill="rgb(120,120,120)"/>
    <circle xmlns="http://www.w3.org/2000/svg" cx="2086" cy="3558" r="6" fill="rgb(120,120,120)"/>
    <circle xmlns="http://www.w3.org/2000/svg" cx="1933" cy="3558" r="6" fill="rgb(120,120,120)"/>
    <circle xmlns="http://www.w3.org/2000/svg" cx="2933" cy="765" r="6" fill="rgb(120,120,120)"/>
    <circle xmlns="http://www.w3.org/2000/svg" cx="3050" cy="861" r="6" fill="rgb(120,120,120)"/>
    <circle xmlns="http://www.w3.org/2000/svg" cx="3158" cy="969" r="6" fill="rgb(120,120,120)"/>
    <circle xmlns="http://www.w3.org/2000/svg" cx="3254" cy="1086" r="6" fill="rgb(120,120,120)"/>
    <circle xmlns="http://www.w3.org/2000/svg" cx="3339" cy="1213" r="6" fill="rgb(120,120,120)"/>
    <circle xmlns="http://www.w3.org/2000/svg" cx="3411" cy="1347" r="6" fill="rgb(120,120,120)"/>
    <circle xmlns="http://www.w3.org/2000/svg" cx="3469" cy="1487" r="6" fill="rgb(120,120,120)"/>
    <circle xmlns="http://www.w3.org/2000/svg" cx="3513" cy="1633" r="6" fill="rgb(120,120,120)"/>
    <circle xmlns="http://www.w3.org/2000/svg" cx="3543" cy="1782" r="6" fill="rgb(120,120,120)"/>
    <circle xmlns="http://www.w3.org/2000/svg" cx="3558" cy="1933" r="16" fill="rgb(0,255,0)"/>
</svg>
